# xmcd
# 
# Track frame offsets:
#     183
#     18743
#     32878
#     49998
#     67238
#     82935
#     99555
#     118545
#     141190
#     160285
#     177333
# 
# Disc length: 2628
# 
# Revision: 5
# Processed by: cddbd v1.5.2PL0 Copyright (c) Steve Scherf et al.
# Submitted via: fre:ac v1.0.31
# 
DISCID=9a0a420b
DTITLE=James Last - Biscaya
DYEAR=1982
DGENRE=Instrumental
TTITLE0=Biscaya
TTITLE1=Beachrunner
TTITLE2=Diving (Die Unterwasserwelt)
TTITLE3=Rain And Sun
TTITLE4=The Morning After
TTITLE5=Shore Life
TTITLE6=Abends im Schilf
TTITLE7=Verlorener Sommer
TTITLE8=The Calm Before The Storm
TTITLE9=Weekend-Torn
TTITLE10=Empty Glasses
EXTD=
EXTT0=
EXTT1=
EXTT2=
EXTT3=
EXTT4=
EXTT5=
EXTT6=
EXTT7=
EXTT8=
EXTT9=
EXTT10=
PLAYORDER=
